<svg id="SvgjsSvg1001" width="288" height="288" xmlns="http://www.w3.org/2000/svg" version="1.1" xmlns:xlink="http://www.w3.org/1999/xlink" xmlns:svgjs="http://svgjs.com/svgjs"><path id="SvgjsPath1131" d="M 144,0 C 5,0 0,5 0,144 0,283 5,288 144,288 283,288 288,283 288,144 288,5 283,0 144,0 Z" fill="#252b5f" transform="matrix(0.78,0,0,0.78,31.679999999999993,31.679999999999993)"></path><defs id="SvgjsDefs1002"></defs><g id="SvgjsG1008" transform="matrix(0.69,0,0,0.69,44.64000406503678,44.640000000000015)"><svg xmlns="http://www.w3.org/2000/svg" viewBox="0 0 62 63.03" width="288" height="288"><defs><clipPath id="l" transform="translate(-803 -903.97)"><path fill="none" d="M824.12,930H811.88a1,1,0,0,0,0,2h12.24a1,1,0,0,0,0-2Z"></path></clipPath><clipPath id="a" transform="translate(-803 -903.97)"><path fill="none" d="M852.38,920v.17a.81.81,0,1,0,1.62,0V920a2.68,2.68,0,0,0-.57-1.66.78.78,0,0,0-1.14-.1.9.9,0,0,0-.1,1.21A.88.88,0,0,1,852.38,920Z"></path></clipPath><clipPath id="c" transform="translate(-803 -903.97)"><path fill="none" d="M853,927a.93.93,0,0,0-1,.83v1.33a1,1,0,0,0,2,0v-1.33A.93.93,0,0,0,853,927Z"></path></clipPath><clipPath id="d" transform="translate(-803 -903.97)"><path fill="none" d="M854,922.83a1,1,0,0,0-2,0v1.33a1,1,0,0,0,2,0Z"></path></clipPath><clipPath id="e" transform="translate(-803 -903.97)"><path fill="none" d="M838.17,960h-1.33a1,1,0,0,0,0,2h1.33a1,1,0,0,0,0-2Z"></path></clipPath><clipPath id="f" transform="translate(-803 -903.97)"><path fill="none" d="M834.17,960h-1.33a1,1,0,0,0,0,2h1.33a1,1,0,0,0,0-2Z"></path></clipPath><clipPath id="g" transform="translate(-803 -903.97)"><path fill="none" d="M829.17,960h-1.33a1,1,0,0,0,0,2h1.33a1,1,0,0,0,0-2Z"></path></clipPath><clipPath id="h" transform="translate(-803 -903.97)"><path fill="none" d="M825.17,960h-1.33a1,1,0,0,0,0,2h1.33a1,1,0,0,0,0-2Z"></path></clipPath><clipPath id="i" transform="translate(-803 -903.97)"><path fill="none" d="M821.41,960.15a1,1,0,0,1-.53-.54,1,1,0,0,0-1.26-.55,1,1,0,0,0-.56,1.24,2.92,2.92,0,0,0,1.58,1.61,1,1,0,0,0,.38.08,1,1,0,0,0,.9-.58A1,1,0,0,0,821.41,960.15Z"></path></clipPath><clipPath id="j" transform="translate(-803 -903.97)"><path fill="none" d="M820,958a.93.93,0,0,0,1-.83v-1.33a1,1,0,0,0-2,0v1.33A.93.93,0,0,0,820,958Z"></path></clipPath><clipPath id="k" transform="translate(-803 -903.97)"><path fill="none" d="M824.12,926H811.88a1,1,0,0,0,0,2h12.24a1,1,0,0,0,0-2Z"></path></clipPath><clipPath id="b" transform="translate(-803 -903.97)"><rect width="1920" height="3134" fill="none"></rect></clipPath><clipPath id="m" transform="translate(-803 -903.97)"><path fill="none" d="M824.12,934H811.88a1,1,0,0,0,0,2h12.24a1,1,0,0,0,0-2Z"></path></clipPath><clipPath id="n" transform="translate(-803 -903.97)"><path fill="none" d="M825,939a1,1,0,0,0-.88-1H811.88a1,1,0,0,0,0,2h12.24A1,1,0,0,0,825,939Z"></path></clipPath><clipPath id="o" transform="translate(-803 -903.97)"><path fill="none" d="M811.85,943a1,1,0,0,0,0,2h5.3a1,1,0,0,0,0-2Z"></path></clipPath><clipPath id="p" transform="translate(-803 -903.97)"><path fill="none" d="M829.94,951.76a.92.92,0,0,0,1.25,0l3.56-3.34a.79.79,0,0,0,0-1.17.92.92,0,0,0-1.25,0L830.56,950l-2.06-1.93a.92.92,0,0,0-1.25,0,.79.79,0,0,0,0,1.17Z"></path></clipPath><clipPath id="q" transform="translate(-803 -903.97)"><path fill="none" d="M839,924.68a7.35,7.35,0,0,1-1.26.53,1.57,1.57,0,0,0-1.09,1.5V929a10.89,10.89,0,0,1-2.3,0v-2.26a1.57,1.57,0,0,0-1.09-1.5,7.43,7.43,0,0,1-1.26-.53,1.52,1.52,0,0,0-1.82.28l-1.57,1.6A11.13,11.13,0,0,1,827,924.9l1.57-1.6a1.59,1.59,0,0,0,.27-1.85,7.68,7.68,0,0,1-.52-1.28,1.55,1.55,0,0,0-1.48-1.11h-2.22a11.42,11.42,0,0,1,0-2.34h2.22a1.54,1.54,0,0,0,1.48-1.11,7.69,7.69,0,0,1,.52-1.28,1.59,1.59,0,0,0-.27-1.85l-1.57-1.6a11.13,11.13,0,0,1,1.63-1.65l1.57,1.6a1.52,1.52,0,0,0,1.82.28,7.45,7.45,0,0,1,1.26-.53,1.57,1.57,0,0,0,1.09-1.5v-2.26a10.92,10.92,0,0,1,2.3,0v2.26a1.57,1.57,0,0,0,1.09,1.5,7.52,7.52,0,0,1,1.26.53,1.52,1.52,0,0,0,1.82-.28l1.57-1.6a11.14,11.14,0,0,1,1.63,1.65l-1.57,1.6h0a1.59,1.59,0,0,0-.27,1.85,7.71,7.71,0,0,1,.52,1.28,1.55,1.55,0,0,0,1.48,1.11h2.22a11.39,11.39,0,0,1,0,2.33h-2.22a1.54,1.54,0,0,0-1.48,1.11,7.69,7.69,0,0,1-.52,1.28,1.59,1.59,0,0,0,.27,1.85l1.57,1.6a11.14,11.14,0,0,1-1.62,1.65l-1.57-1.6A1.52,1.52,0,0,0,839,924.68Zm-8.54,18.4a6.07,6.07,0,1,1-6,6.07A6,6,0,0,1,830.44,943.08Zm12.86-15a12.88,12.88,0,0,0,2.18-2.22,1.59,1.59,0,0,0-.13-2.08l-1.59-1.62a9.49,9.49,0,0,0,.53-1.31h2.26a1.55,1.55,0,0,0,1.53-1.37c0-.25.05-.5.07-.75h1a.89.89,0,0,0,0-1.78h-1c0-.21,0-.41-.06-.61a1.55,1.55,0,0,0-1.53-1.38h-2.26a9.5,9.5,0,0,0-.53-1.31l1.59-1.62a1.59,1.59,0,0,0,.13-2.07,12.91,12.91,0,0,0-2.18-2.22,1.53,1.53,0,0,0-2,.13l-1.59,1.62a9.18,9.18,0,0,0-1.29-.54v-2.29a1.56,1.56,0,0,0-1.35-1.56,12.58,12.58,0,0,0-3.09,0,1.56,1.56,0,0,0-1.35,1.56v2.29a9.19,9.19,0,0,0-1.29.54l-1.59-1.62a1.53,1.53,0,0,0-2-.13,12.86,12.86,0,0,0-2.18,2.22,1.59,1.59,0,0,0,.13,2.07l1.59,1.62a9.48,9.48,0,0,0-.53,1.31h-2.26a1.55,1.55,0,0,0-1.53,1.38c0,.2,0,.41-.06.61H810.55a2,2,0,0,0-1.44.61l-4.51,4.58a2.08,2.08,0,0,0-.6,1.47v25.61a2.06,2.06,0,0,0,2,2.07h12.83v.89a.87.87,0,1,0,1.75,0v-.89H823a7.74,7.74,0,1,0,8.33-9.93v-4a.87.87,0,1,0-1.75,0v4a7.81,7.81,0,0,0-6.87,7.8c0,.12,0,.24,0,.36H806a.29.29,0,0,1-.29-.3V923.6a.3.3,0,0,1,.09-.21l4.51-4.58a.29.29,0,0,1,.21-.09H822.8c0,.25,0,.5.07.75a1.55,1.55,0,0,0,1.53,1.38h2.26a9.46,9.46,0,0,0,.53,1.31l-1.59,1.62a1.59,1.59,0,0,0-.13,2.08,12.87,12.87,0,0,0,2.18,2.22,1.52,1.52,0,0,0,1.93,0v5.13a.87.87,0,1,0,1.75,0v-6.83a9.24,9.24,0,0,0,1.24.52v2.29a1.56,1.56,0,0,0,1.35,1.56,12.66,12.66,0,0,0,1.54.09,12.42,12.42,0,0,0,1.54-.1,1.56,1.56,0,0,0,1.35-1.56v-2.29a9.11,9.11,0,0,0,1.29-.54l1.59,1.62A1.53,1.53,0,0,0,843.3,928.07Z"></path></clipPath><clipPath id="r" transform="translate(-803 -903.97)"><path fill="none" d="M840.36,915.14a.85.85,0,0,0-.43,1.12,4.3,4.3,0,1,1-2.4-2.28.85.85,0,1,0,.6-1.59,6,6,0,1,0,3.35,3.18A.85.85,0,0,0,840.36,915.14Z"></path></clipPath><clipPath id="s" transform="translate(-803 -903.97)"><path fill="none" d="M835.5,919.39a.89.89,0,1,1,.89-.89A.89.89,0,0,1,835.5,919.39Zm0-3.39a2.5,2.5,0,1,0,2.5,2.5A2.5,2.5,0,0,0,835.5,916Z"></path></clipPath><clipPath id="t" transform="translate(-803 -903.97)"><path fill="none" d="M842.53,941.59v-5.93h19.69v5.93Zm19.69,16.69v5.93H842.53v-5.93Zm.3-14.9a1.49,1.49,0,0,0,1.48-1.49v-6.53a1.49,1.49,0,0,0-1.48-1.49h-9.43a.9.9,0,0,0,.18-.54V931.9a.89.89,0,1,0-1.78,0v1.43a.9.9,0,0,0,.18.54h-9.43a1.49,1.49,0,0,0-1.48,1.49v6.53a1.49,1.49,0,0,0,1.48,1.49h9.25v1.8h-9.25a1.49,1.49,0,0,0-1.48,1.49v6.53a1.49,1.49,0,0,0,1.48,1.49h9.25v1.8h-9.25a1.49,1.49,0,0,0-1.48,1.49v2.38a.9.9,0,0,0,0,1.77v2.38a1.49,1.49,0,0,0,1.48,1.49h20.29a1.49,1.49,0,0,0,1.48-1.49V958a1.49,1.49,0,0,0-1.48-1.49h-9.25v-1.8h2.32a.9.9,0,0,0,0-1.79H842.53V947h19.69v5.93h-2.49a.9.9,0,0,0,0,1.79h2.79A1.49,1.49,0,0,0,864,953.2v-6.53a1.49,1.49,0,0,0-1.48-1.49h-9.25v-1.8Z"></path></clipPath><clipPath id="u" transform="translate(-803 -903.97)"><path fill="none" d="M859.1,937H845.9a1,1,0,0,0,0,2h13.2a1,1,0,0,0,0-2Z"></path></clipPath><clipPath id="v" transform="translate(-803 -903.97)"><path fill="none" d="M860,950a1,1,0,0,0-.9-1H845.9a1,1,0,0,0,0,2h13.2A1,1,0,0,0,860,950Z"></path></clipPath><clipPath id="w" transform="translate(-803 -903.97)"><path fill="none" d="M845.9,962h13.2a1,1,0,0,0,0-2H845.9a1,1,0,0,0,0,2Z"></path></clipPath></defs><g data-name="Layer 2" fill="#51c3fc" class="color000 svgShape"><g data-name="Layer 1" fill="#51c3fc" class="color000 svgShape"><g clip-path="url(#a)" fill="#51c3fc" class="color000 svgShape"><g clip-path="url(#b)" fill="#51c3fc" class="color000 svgShape"><rect width="4.1" height="5.1" x="47.9" y="12.93" fill="#66ccff" class="color6666d1 svgShape"></rect></g></g><g clip-path="url(#c)" fill="#51c3fc" class="color000 svgShape"><g clip-path="url(#b)" fill="#51c3fc" class="color000 svgShape"><rect width="4" height="5" x="48" y="22.03" fill="#66ccff" class="color6666d1 svgShape"></rect></g></g><g clip-path="url(#d)" fill="#51c3fc" class="color000 svgShape"><g clip-path="url(#b)" fill="#51c3fc" class="color000 svgShape"><rect width="4" height="5" x="48" y="17.03" fill="#66ccff" class="color6666d1 svgShape"></rect></g></g><g clip-path="url(#e)" fill="#51c3fc" class="color000 svgShape"><g clip-path="url(#b)" fill="#51c3fc" class="color000 svgShape"><rect width="5" height="4" x="32" y="55.03" fill="#66ccff" class="color6666d1 svgShape"></rect></g></g><g clip-path="url(#f)" fill="#51c3fc" class="color000 svgShape"><g clip-path="url(#b)" fill="#51c3fc" class="color000 svgShape"><rect width="5" height="4" x="28" y="55.03" fill="#66ccff" class="color6666d1 svgShape"></rect></g></g><g clip-path="url(#g)" fill="#51c3fc" class="color000 svgShape"><g clip-path="url(#b)" fill="#51c3fc" class="color000 svgShape"><rect width="5" height="4" x="23" y="55.03" fill="#66ccff" class="color6666d1 svgShape"></rect></g></g><g clip-path="url(#h)" fill="#51c3fc" class="color000 svgShape"><g clip-path="url(#b)" fill="#51c3fc" class="color000 svgShape"><rect width="5" height="4" x="19" y="55.03" fill="#66ccff" class="color6666d1 svgShape"></rect></g></g><g clip-path="url(#i)" fill="#51c3fc" class="color000 svgShape"><g clip-path="url(#b)" fill="#51c3fc" class="color000 svgShape"><rect width="5.26" height="5.13" x="14.87" y="53.91" fill="#66ccff" class="color6666d1 svgShape"></rect></g></g><g clip-path="url(#j)" fill="#51c3fc" class="color000 svgShape"><g clip-path="url(#b)" fill="#51c3fc" class="color000 svgShape"><rect width="4" height="5" x="15" y="50.03" fill="#66ccff" class="color6666d1 svgShape"></rect></g></g><g clip-path="url(#k)" fill="#51c3fc" class="color000 svgShape"><g clip-path="url(#b)" fill="#51c3fc" class="color000 svgShape"><rect width="16" height="4" x="7" y="21.03" fill="#66ccff" class="color6666d1 svgShape"></rect></g></g><g clip-path="url(#l)" fill="#51c3fc" class="color000 svgShape"><g clip-path="url(#b)" fill="#51c3fc" class="color000 svgShape"><rect width="16" height="4" x="7" y="25.03" fill="#66ccff" class="color6666d1 svgShape"></rect></g></g><g clip-path="url(#m)" fill="#51c3fc" class="color000 svgShape"><g clip-path="url(#b)" fill="#51c3fc" class="color000 svgShape"><rect width="16" height="4" x="7" y="29.03" fill="#66ccff" class="color6666d1 svgShape"></rect></g></g><g clip-path="url(#n)" fill="#51c3fc" class="color000 svgShape"><g clip-path="url(#b)" fill="#51c3fc" class="color000 svgShape"><rect width="16" height="4" x="7" y="33.03" fill="#66ccff" class="color6666d1 svgShape"></rect></g></g><g clip-path="url(#o)" fill="#51c3fc" class="color000 svgShape"><g clip-path="url(#b)" fill="#51c3fc" class="color000 svgShape"><rect width="9" height="4" x="7" y="38.03" fill="#66ccff" class="color6666d1 svgShape"></rect></g></g><g clip-path="url(#p)" fill="#51c3fc" class="color000 svgShape"><g clip-path="url(#b)" fill="#51c3fc" class="color000 svgShape"><rect width="10.17" height="7.08" x="22.91" y="41.95" fill="#66ccff" class="color6666d1 svgShape"></rect></g></g><g clip-path="url(#q)" fill="#51c3fc" class="color000 svgShape"><g clip-path="url(#b)" fill="#51c3fc" class="color000 svgShape"><rect width="48" height="54.03" fill="#66ccff" class="color6666d1 svgShape"></rect></g></g><g clip-path="url(#r)" fill="#51c3fc" class="color000 svgShape"><g clip-path="url(#b)" fill="#51c3fc" class="color000 svgShape"><rect width="14" height="14" x="26" y="7.03" fill="#66ccff" class="color6666d1 svgShape"></rect></g></g><g clip-path="url(#s)" fill="#51c3fc" class="color000 svgShape"><g clip-path="url(#b)" fill="#51c3fc" class="color000 svgShape"><rect width="7" height="7" x="29" y="11.03" fill="#66ccff" class="color6666d1 svgShape"></rect></g></g><g clip-path="url(#t)" fill="#51c3fc" class="color000 svgShape"><g clip-path="url(#b)" fill="#51c3fc" class="color000 svgShape"><rect width="26" height="37" x="36" y="26.03" fill="#66ccff" class="color6666d1 svgShape"></rect></g></g><g clip-path="url(#u)" fill="#51c3fc" class="color000 svgShape"><g clip-path="url(#b)" fill="#51c3fc" class="color000 svgShape"><rect width="17" height="4" x="41" y="32.03" fill="#66ccff" class="color6666d1 svgShape"></rect></g></g><g clip-path="url(#v)" fill="#51c3fc" class="color000 svgShape"><g clip-path="url(#b)" fill="#51c3fc" class="color000 svgShape"><rect width="17" height="4" x="41" y="44.03" fill="#66ccff" class="color6666d1 svgShape"></rect></g></g><g clip-path="url(#w)" fill="#51c3fc" class="color000 svgShape"><g clip-path="url(#b)" fill="#51c3fc" class="color000 svgShape"><rect width="17" height="4" x="41" y="55.03" fill="#66ccff" class="color6666d1 svgShape"></rect></g></g></g></g></svg></g></svg>